<?xml version="1.0" encoding="UTF-8"?>
<svg id="Layer_2" data-name="Layer 2" xmlns="http://www.w3.org/2000/svg" viewBox="0 0 333.54 105.1">
  <defs>
    <style>
      .cls-1 {
        fill: #fff;
      }
    </style>
  </defs>
  <g id="Layer_1-2" data-name="Layer 1">
    <g id="_17GhzS" data-name="17GhzS">
      <g>
        <path class="cls-1" d="M.06,103.11c-.29-1.87.47-.99,1.5-1.25,9.73-2.47,10.52-5.9,14.66-14.39,11.87-24.34,21.24-50.56,33.14-74.97l-1.14-3.38-4.32-3.24L64.88,0l36.11,92.02c3.42,6.71,5.93,8.05,13.02,9.85,1.04.26,1.8-.63,1.5,1.25h-42.6c-.29-1.87.47-.99,1.5-1.25,2.62-.66,7.93-1.6,8.86-4.74,2.05-6.92-9.19-27.91-10.91-35.63l-.99-.42-42.62,10.54c-1.65,5.74-8.85,18.84-8.32,24.34.46,4.8,7.89,5.29,11.41,5.94,1.02.19,1.06-.4.93,1.22H.06ZM70.45,57.42L52.55,14.82l-21.61,51.86,39.51-9.27Z"/>
        <path class="cls-1" d="M267.29,34.15c10.02-.8,22.74,3.07,28.8,11.59,1.05,1.48,4.07,8.03,4.05,9.57-.01.78-.29,1.17-1.05,1.37l-48.06,11.82c-.68,24.48,26.01,34.44,45.38,22.53.53-.33,3.36-4.04,3.75-1.8.2,1.15-4.17,5.52-5.23,6.48-15.85,14.27-41.89,11.8-54.29-5.63-16.49-23.16-1.13-53.71,26.68-55.95ZM250.12,64.21l31.19-7.39c5.26-4.88,3.39-17.17-3.59-19.91-10.71-4.2-20.71,4.49-24.63,13.92-1.84,4.42-2.43,8.66-2.97,13.38Z"/>
        <path class="cls-1" d="M218.64,53.72c4.59-16.98-13.09-23.45-24.42-12.38-9.74,9.52-11.38,27.86-5.84,39.86,7.69,16.68,32.82,19.78,45.4,7.1,1.64-.68.78,2.06.33,2.8-4.19,6.98-17.72,13.18-25.66,13.85-35.17,2.95-54.52-40.95-26.18-63.22,14.87-11.69,42.3-10.73,50.57,7.94l-14.19,4.05Z"/>
        <path class="cls-1" d="M168,50.01l-14.81,3.71c4.3-20.68-17.47-23.36-27.68-8.22-10.71,15.89-6.94,43.44,13.47,49.28,7.45,2.13,17.4,1.49,24.28-2.27,2.29-1.25,3.61-3.45,5.97-4.21,1.37,1.6-5.15,7.55-6.49,8.63-26.19,20.98-66.28-2.16-58.54-35.7,6.68-28.97,49.08-38.26,63.8-11.22Z"/>
        <path class="cls-1" d="M321.74,92.31c.78,6.37,4.77,8.06,10.22,9.57.99.27,1.82-.67,1.51,1.24h-37.05c-.3-1.9.51-.97,1.51-1.24,8.57-2.34,9.68-5.16,10.24-13.86,1.52-23.48-1.18-48.6-.04-72.25-.43-3.26-.59-5.14-3.49-7.01-1.3-.84-4.74-1.08-3.91-2.88.75-1.64,18.3-4.19,20.99-5.87v92.31Z"/>
      </g>
    </g>
  </g>
</svg>