<?xml version="1.0" encoding="UTF-8"?>
<svg id="Layer_2" data-name="Layer 2" xmlns="http://www.w3.org/2000/svg" viewBox="0 0 619.74 72.79">
  <defs>
    <style>
      .cls-1 {
        fill: #fdfdfe;
      }

      .cls-2 {
        fill: #fff;
      }

      .cls-3 {
        fill: #fefefe;
      }

      .cls-4 {
        fill: #fdfefe;
      }
    </style>
  </defs>
  <g id="Layer_1-2" data-name="Layer 1">
    <g>
      <g id="m0Aci6">
        <g>
          <path class="cls-3" d="M212.55,53.14v-19.88c0-.25-.91-2.64-1.14-3.07-2.72-5.05-10.49-4.08-12.78.85-.18.39-1.06,2.99-1.06,3.15v18.94h-6.79c-.51,0-.67-1.14-.73-1.61-.71-6.01-.71-23.5,0-29.51.06-.47.21-1.61.73-1.61h6.79c.19,0-.14,3.22,0,3.74,6.31-6.6,18.38-5.71,21.39,3.64,1.46,4.51,1.67,18.83,1.09,23.75-.06.47-.21,1.61-.73,1.61h-6.79Z"/>
          <path class="cls-3" d="M322.99,30.23h-6.79c-.22,0-1.75-2.53-2.88-3.2-2.97-1.75-9.78-1.54-9.5,2.93.21,3.4,7.8,3.13,10.38,3.68,6.43,1.36,11.16,5.58,9.12,12.6-3.27,11.23-27.54,9.64-27.48-3.38h6.79c.34,0,1.45,2.79,2.61,3.47,3.66,2.15,13.92,1.1,10.76-4.21-2.32-3.9-16.04-.14-18.99-9.08-5.14-15.58,24.95-18.32,25.98-2.81Z"/>
          <path class="cls-3" d="M133.93,33.03h-7.96c-.2,0-.95-2.55-1.88-3.5-7.31-7.56-18.85,1.48-14.51,11.7,2.43,5.72,10.14,7.33,14.51,2.79.92-.96,1.68-3.5,1.88-3.5h7.96c-4.04,18.94-31.96,16.73-32.78-3.02-.85-20.6,28.67-24.39,32.78-4.47Z"/>
          <path class="cls-3" d="M439.04,20.4l5.99.1c5.2,8.19,9.89,16.83,15.54,24.69v-24.79h4.68v32.74c-1.95-.22-4.45.72-5.88-.91-5.17-7.3-9.13-16.42-14.33-23.56-.34-.47-.69-1.13-1.32-1.25v25.72c-.88-.03-4.68.32-4.68-.7V20.4Z"/>
          <path class="cls-3" d="M619.21,29.29c-1.19-.19-3.8.4-4.7-.21-.51-.35-.55-1.67-.98-2.29-4.32-6.32-16.96-2.23-13.06,4.64,2.63,4.63,17,.7,19,10,3.05,14.17-20.97,16.28-24.83,5.17-.28-.81-.98-2.9.06-3.21,5.72-1.67,3.71,3.54,7.65,5.31,4.8,2.15,14.19.72,12.07-6.46-1.53-5.16-16.13-1.29-18.97-9.57-5.17-15.1,23.16-17.88,23.74-3.39Z"/>
          <polygon class="cls-4" points="432.02 20.4 432.02 24.61 414.71 24.61 414.71 33.97 430.62 33.97 430.62 38.18 414.71 38.18 414.71 48.47 432.02 48.47 432.02 53.14 410.03 53.14 410.03 20.4 432.02 20.4"/>
          <path class="cls-4" d="M589.26,20.4v4.21h-17.31v9.35h15.91v4.21h-15.91v10.29h16.61c1.02,0,1.02,4.68,0,4.68h-21.29V20.4h21.99Z"/>
          <path class="cls-3" d="M506.43,20.4v23.15c0,.74,1.89,3.81,2.64,4.38,2.61,1.97,7.56,1.97,10.16,0,.74-.56,2.64-3.64,2.64-4.38v-23.15h4.68v24.55c0,.61-2.03,4.23-2.6,4.88-5.14,5.89-17.46,4.94-21.06-2.28-.23-.47-1.14-2.8-1.14-3.07v-24.09h4.68Z"/>
          <path class="cls-3" d="M381.42,20.47c1.19.76,7.35,23.61,9.19,26.6l9.35-26.2c.8-.97,3.66-.26,4.92-.46-1.53,3.64-10.35,32.13-12.01,32.66-.67.22-4.57.26-4.89-.2l-11.64-32.46c1.1.23,4.42-.36,5.08.06Z"/>
          <path class="cls-1" d="M184,20.4v32.74h-6.79s-.7-.65-.7-.7v-25.02c0-.21-4.21.21-4.21,0v-7.02h11.7Z"/>
          <path class="cls-1" d="M496.6,20.4v4.21h-10.3v27.83c0,1.03-5.15,1.03-5.15,0v-27.83h-10.76c0-.78-.27-4.21.7-4.21h25.5Z"/>
          <path class="cls-1" d="M178.72,7.41c9.12-2.08,7.76,10.47.96,9.16-4.88-.93-5.32-8.17-.96-9.16Z"/>
          <path class="cls-3" d="M256.44,27.74c-3.82-6.86-13.02-10.08-20.06-6.2-1.48.82-2.14,2.27-3.72,2.6V6.84h-7.49v45.6s.65.7.7.7h6.79c.21,0-.16-3.69,0-4.21,14.57,13.71,32.67-5.23,23.77-21.19ZM243.56,46.48c-12.88,2.16-14.56-17.25-4-19.42,13.23-2.72,15.47,17.5,4,19.42Z"/>
          <path class="cls-3" d="M327.41,32.07c-5.52,21.37,24.78,30.6,31.61,10.31h-7.96c-.26,0-1.32,2.92-3.47,3.78-5.71,2.28-12.49-1.06-12.91-7.52h24.33c3.58-20.88-26.58-26.02-31.61-6.57ZM335.15,33.03c1.69-8.77,14.62-8.8,16.38,0h-16.38Z"/>
          <path class="cls-3" d="M293.51,46.12c-.19-.19-3.55.2-3.75,0-.6-.6,0-14.77,0-17.07,0-1.84-2.46-5.59-4.06-6.7-7.65-5.34-22.24-2.3-23.09,8.34h7.49c.07,0-.01-.84.27-1.34,3.77-6.62,15.35-1.84,10.98,2.53-3.13,3.13-14.06.53-18.27,6.99-7.22,11.07,10.5,19.77,18.25,11.69.75-.78.97-2.16,1.87-2.57.05,4.14,6.31,6.13,9.53,5.07,1.07-.35,1.02-6.7.77-6.95ZM280.88,44.5c-3.42,4.14-13.43,3.85-11.61-2.25,1.04-3.48,10.43-2.65,13-5.01.02,2.68.43,5.05-1.39,7.26Z"/>
          <path class="cls-3" d="M150.19,20.06c-19.77,2.88-17.82,35.56,4.97,33.49,21.67-1.97,19.08-37-4.97-33.49ZM151.59,46.48c-10.08-1.69-9.48-17.88-.47-19.42,15.22-2.6,14.93,21.84.47,19.42Z"/>
          <path class="cls-3" d="M547.15,39.81c4.82-.39,10.35-.71,12.26-5.98,2.35-6.5-1.43-12.57-8.29-13.43-4.81-.6-10.74.44-15.68,0v32.74h4.68v-13.56l14.52,13.32,6.54.24-14.03-13.33ZM540.12,24.61h11c3.67,0,5.72,7.27,2.35,9.83-.13.1-.35.22-.62.35-1.45.7-3.05,1.04-4.66,1.04h-8.06v-11.22Z"/>
        </g>
      </g>
      <g id="TaZGIX">
        <path class="cls-2" d="M72.27,39.47c.16.05.34.35.33.54-2.96,27.61-34.88,42.46-57.7,25.73C-8.37,48.69-3.51,12.58,23.4,2.35c21.36-8.12,45.68,5.68,48.95,28.35.06.42.41,2.47-.08,2.47h-18.05c-.79-.83-.81-2.19-1.25-3.31-6.59-16.77-31.31-14.19-34.24,3.48-3.18,19.22,22.35,28.82,32.64,12.64,1.36-2.15,1.8-4.3,2.85-6.5h18.05Z"/>
      </g>
    </g>
  </g>
</svg>