<?xml version="1.0" encoding="UTF-8"?>
<svg id="Layer_2" data-name="Layer 2" xmlns="http://www.w3.org/2000/svg" viewBox="0 0 1260.91 1330.81">
  <defs>
    <style>
      .cls-1, .cls-2 {
        fill: none;
      }

      .cls-2 {
        stroke: #ef0;
        stroke-miterlimit: 10;
        stroke-width: 5px;
      }
    </style>
  </defs>
  <g id="Layer_1-2" data-name="Layer 1">
    <path class="cls-2" d="M1258.41,910.94c0-28.01-4.16-55.38-12.08-81.84-57.23,191.32-311.21,335.53-615.87,335.53v163.69c346.81,0,627.95-186.86,627.95-417.37Z"/>
    <path class="cls-2" d="M630.45,1000.93c-.09,0-.17,0-.26,0-2.11,0-4.22-.01-6.33-.03-175.96-1.2-334.59-50.5-447.52-129.07-51.73-35.99-93.88-78.12-123.71-124.59-16.71-26.03-29.56-53.42-38.06-81.84-7.92,26.47-12.08,53.83-12.08,81.84s4.16,55.38,12.08,81.84c57.23,191.32,311.21,335.53,615.87,335.53v-163.69Z"/>
    <path class="cls-2" d="M630.2,1000.93c.09,0,.17,0,.26,0h0c-.09,0-.17,0-.26,0Z"/>
    <path class="cls-2" d="M630.45,1000.93h0c.09,0,.17,0,.26,0-.09,0-.17,0-.26,0h0Z"/>
    <path class="cls-2" d="M1246.33,501.72c-56.47-188.78-304.51-331.69-603.79-335.44-.21,0-.41,0-.62,0-1.57-.02-3.14-.04-4.72-.05-2.25-.02-4.49-.03-6.75-.03h0v163.03h0c32.3,0,63.82,1.84,94.25,5.34,156.71,18.01,284.19,80.04,338.08,161.62,17.94,27.16,27.73,56.48,27.73,87.06,0,13.51-1.92,26.77-5.6,39.71-4.21,14.8-10.73,29.17-19.36,43.01-18.8,30.15-47.58,57.73-84.17,81.54-80.69,52.5-199.34,86.66-332.54,89.55-2.52.05-5.04.11-7.57.13-3.6.05-7.21.07-10.83.07h0v163.69c.09,0,.17,0,.26,0,2.11,0,4.22-.01,6.33-.03,175.96-1.2,334.59-50.5,447.52-129.07,51.73-35.99,93.88-78.12,123.71-124.59,16.71-26.03,29.56-53.42,38.06-81.84,7.92-26.47,12.08-53.83,12.08-81.84s-4.16-55.38-12.08-81.84Z"/>
    <path class="cls-2" d="M536.21,334.55c30.74-3.08,62.21-4.68,94.25-4.68v-.66c-32.3,0-63.82,1.84-94.25,5.34Z"/>
    <path class="cls-2" d="M630.45,329.22h0v.66c32.03,0,63.5,1.6,94.25,4.68-30.42-3.5-61.95-5.34-94.25-5.34Z"/>
    <path class="cls-2" d="M536.21,334.55c-156.71,18.01-284.19,80.04-338.09,161.62,17.62,26.13,43.24,50.21,75.29,71.38,5.25,3.47,10.67,6.86,16.26,10.17,84.09-51.19,205.62-83.34,340.78-83.34v-164.5c-32.03,0-63.5,1.6-94.25,4.68Z"/>
    <path class="cls-2" d="M971.23,577.72c-84.09-51.19-205.62-83.34-340.78-83.34v163.36c9.99,0,19.9.18,29.73.52,128.65,4.53,242.9,38.23,321.22,89.23,36.59-23.81,65.37-51.39,84.17-81.54-20.39-33-52.79-62.94-94.33-88.23Z"/>
    <path class="cls-2" d="M630.45,837.24c3.62,0,7.23-.03,10.83-.07-3.61.04-7.21.07-10.83.07h0Z"/>
    <path class="cls-2" d="M619.62,837.17c3.6.05,7.21.07,10.83.07-3.62,0-7.23-.03-10.83-.07Z"/>
    <path class="cls-2" d="M618.37,166.27c.21,0,.41,0,.62,0,1.57-.02,3.14-.04,4.72-.05,2.25-.02,4.49-.03,6.75-.03V2.5C283.64,2.5,2.5,189.36,2.5,419.87c0,28.01,4.16,55.38,12.08,81.84,8.5,28.43,21.35,55.81,38.06,81.84,18.71,29.13,42.24,56.56,69.96,81.84,16.51,15.06,34.5,29.36,53.83,42.8,26.59,18.49,55.72,35.36,87,50.36,98.62,47.29,218.73,76,348.72,78.48,2.48.05,4.97.1,7.47.13,3.61.04,7.21.07,10.83.07h0v-178.48c-9.99,0-19.9-.17-29.73-.51-123.19-4.22-233.17-34.44-311.05-80.54-5.59-3.31-11.01-6.7-16.26-10.17-32.06-21.17-57.67-45.25-75.29-71.38-8.4-12.47-15-25.4-19.58-38.71-5.03-14.59-7.66-29.62-7.66-44.99,0-133.85,199.26-242.77,447.49-246.2Z"/>
    <path class="cls-2" d="M600.72,658.25c9.83.34,19.74.51,29.73.51v-1.03c-9.99,0-19.9.18-29.73.52Z"/>
    <path class="cls-2" d="M630.45,657.73v1.03c9.99,0,19.9-.17,29.73-.51-9.83-.35-19.74-.52-29.73-.52Z"/>
    <rect class="cls-1" x="2.04" y="1.7" width="1258.08" height="1325.67"/>
  </g>
</svg>