<?xml version="1.0" encoding="UTF-8"?>
<svg id="Layer_2" data-name="Layer 2" xmlns="http://www.w3.org/2000/svg" viewBox="0 0 430.55 78.2">
  <defs>
    <style>
      .cls-1 {
        fill: #fff;
      }
    </style>
  </defs>
  <g id="Layer_1-2" data-name="Layer 1">
    <g>
      <g id="ThSmZD">
        <g>
          <path class="cls-1" d="M333.29,5.98v22.1c4.17-4.82,9.8-9.02,16.4-9.57,17.15-1.45,28.81,15.06,26.3,31.09-3.44,21.91-28.2,30.51-42.7,12.75v9.21h-8.1V5.98h8.1ZM350.52,27.45c-22.36,2.57-16.41,41.3,5.77,34.87,18.68-5.41,13.41-37.07-5.77-34.87Z"/>
          <path class="cls-1" d="M430.54,47.24h-40.15c1.25,10.12,9.71,18.3,20.26,14.92,4.75-1.52,9.1-5.62,10.31-10.5h8.84c-4.85,21.46-31.56,28.37-43.62,8.44-13.8-22.81,9.86-53.66,33.28-37.33,7.77,5.42,11.25,15.24,11.08,24.47ZM421.33,40.24c-4.05-17.29-26.01-16.72-30.58,0h30.58Z"/>
          <path class="cls-1" d="M291.57,18.6c26.27-3.29,37.09,32.46,17.95,48.16-15.9,13.03-37.11-.02-38.48-18.97-.9-12.48,7.18-27.51,20.54-29.19ZM293.42,27.45c-21.37,2.49-17.1,39.76,4.89,35.1,19.42-4.12,15.19-37.44-4.89-35.1Z"/>
          <path class="cls-1" d="M195.88,33.24h-9.21c.04-3.74-1.85-6.57-5.71-7-4.29-.48-13-.41-11.95,6.06.09.55.26.84.55,1.29,3.22,5.12,17.99,7.47,23.75,12.72,6.63,6.05,4.91,16.18-1.88,21.34-10.45,7.95-34.81,4.14-33.49-12.31h8.29c.82,1.25.7,2.66,1.46,4.07,3.19,5.95,17.62,5.79,20.43-.61,1.49-3.4.4-6.09-2.57-8.04-7.06-4.63-24.38-6.9-25.38-17.35-1.83-19.16,31.59-20.2,35.2-4.62.31,1.36.25,3.03.53,4.44Z"/>
          <path class="cls-1" d="M219.82,5.98v12.53h11.97l.55.55v7.18h-12.53c.23,7.66-.31,15.38-.02,23.04.11,2.78.24,7.92,1,10.42,1.55,5.02,7.14,3.71,11.17,4.49v7.74h-5.71c-.82,0-3.91-.73-4.89-1-10.76-2.98-10.09-11.11-10.41-20.53-.27-8.03.23-16.12.02-24.14h-7.74v-7.74h7.74V5.98h8.84Z"/>
          <path class="cls-1" d="M250.77,18.51v5.53c2.67-1.87,5.03-4.34,8.38-5.07,3.43-.75,8.08-.61,11.15,1.2v8.29c-5.06-1.59-8.71-2.79-13.61.21-1.31.81-5.92,5.65-5.92,6.97v36.29h-8.84V18.51h8.84Z"/>
        </g>
      </g>
      <rect class="cls-1" x="15.81" y="0" width="109.42" height="15.23" rx="7.34" ry="7.34"/>
      <rect class="cls-1" x="0" y="20.94" width="109.42" height="15.23" rx="7.34" ry="7.34"/>
      <rect class="cls-1" x="15.81" y="42.02" width="109.42" height="15.23" rx="7.34" ry="7.34"/>
      <rect class="cls-1" x="0" y="62.96" width="109.42" height="15.23" rx="7.34" ry="7.34"/>
    </g>
  </g>
</svg>