<?xml version="1.0" encoding="UTF-8"?>
<svg id="Layer_2" data-name="Layer 2" xmlns="http://www.w3.org/2000/svg" viewBox="0 0 474.91 86.59">
  <defs>
    <style>
      .cls-1 {
        fill: #fff;
      }
    </style>
  </defs>
  <g id="Layer_1-2" data-name="Layer 1">
    <g id="HqYDa1">
      <g>
        <path class="cls-1" d="M36.73,23.95l5.97-11.08-5.37-11.07,3.52.09,3.41,7.09c1.25.27.82-.54,1.19-1.19,1.08-1.88,1.97-3.92,2.81-5.91l3.52-.09-5.37,11.07c1.13,2.46,2.05,5.08,3.25,7.5.41.83,1.41,3.87,2.42,3.58L62.7,1.89l3.52-.09-13.84,28.74,23.46-22.15.33,3.57-15.99,15.28-1.19,2.11,11.62,1.7,10.04-8.29.33,2.98-5.74,6c3.37.57,9.77-.7,9.02,4.19l-12.2-1.7-8.86,8.88,25.13,3.76c.3,1.68,1.96,2.95-.59,2.69-10.2-1.07-20.38-3.3-30.55-4.64l28.28,16.16c-.89-.09-1.58.95-2.27,1.09-2.1.44-19.23-10.48-23.01-11.26l2.56,12.41,10.67,5.84c-3.11,4.03-6.65-1.76-10.22-2.09.06,3.48,3.51,8.79-1.2,10.18l-2.11-11.98-11.13-5.98,4.25,24.76-2.16,1.58-5.7-31.13,13.84,6.58-2.31-15.73,11.34-11.81-16.22-2.73-6.66-14.04c-1.41-.3-.96.2-1.34.77-2.48,3.79-4.17,9.28-6.49,13.28l-16.24,2.72,11.29,11.74-2.86,15.79,14.44-6.58-4.81,31.13c-.38.44-3.25-1-3.02-2.09l4.23-24.26-11.12,6-2.12,11.96c-4.85-.81-1.62-6.94-1.2-10.17-3.7.26-7.21,6.1-10.22,2.09l10.69-5.83,1.94-12.44-21.51,11.29-3.16-1.12,28.29-16.15L.01,49.69c-.11-.11.49-2.53.75-2.83,1.1-1.24,21.85-3.08,25.13-3.76l-8.86-8.87-12.81,1.68,1.79-3.3,7.84-.89c-2.02-3.48-7.46-4.9-5.41-9.57l9.46,8.89,12.2-1.71c.38-1.4-.36-1.01-.77-1.37-5.89-5.18-11.71-11.02-16.7-16.91l.62-2.68,23.46,22.15L22.9,2.67c-.45-1.5,2.35-.97,3-.59,1.5.9,9.23,18.94,10.83,21.86Z"/>
        <path class="cls-1" d="M110.06,1.89l17.54,34.63,8.21-17.06L127.01,1.8c1.52.2,4.16-.48,5.42.29.75.45,4.19,8.3,5.12,9.9.35.61-.03,1.5,1.19,1.19.82-.21,4.32-10.95,6.62-11.38,1.36-.25,3.09.15,4.52,0l-8.42,17.11,8.13,17.02L167.03,2.38l5.13-.28-21.69,44.6c-1.4.3-.96-.19-1.34-.77-3.77-5.8-6.18-14.22-9.94-20.01-.38-.58.06-1.07-1.34-.77l-10.25,22.15L104.76,2.67c-.5-1.66,4.48-.71,5.31-.78Z"/>
        <polygon class="cls-1" points="186 1.79 186 19.76 209.47 19.76 209.47 1.79 214.29 1.79 214.29 45.5 209.47 45.5 209.47 24.85 208.57 23.95 186 23.95 186 45.5 181.18 45.5 181.18 1.79 186 1.79"/>
        <path class="cls-1" d="M460.17,1.79c4.42.52,10.13,3.32,11.33,7.89,1.77,6.78-.59,13.35-7.4,15.78-1.03.37-3.55-.19-3.02,1.17l13.84,18.87-6.36-.55c-4.25-5.21-7.7-12.4-12.04-17.36-.6-.69-.93-1.47-2.06-1.24v19.16h-4.82V1.79c3.36.28,7.25-.39,10.53,0ZM454.45,22.15c4.06.27,11.08.1,12.35-4.78,2.47-9.44-4.38-11.71-12.35-11.39v16.17Z"/>
        <path class="cls-1" d="M437.59,45.5l-5.35-.07-5.48-12.21h-18.06l-5.48,12.21-5.35.07L417.74,0l19.85,45.5ZM410.51,28.74h15.05c-2.71-5.04-4.29-11.21-6.92-16.2-.36-.69,0-1.43-1.2-1.17l-6.93,17.37Z"/>
        <polygon class="cls-1" points="307.58 1.79 307.58 5.98 289.53 5.98 289.53 21.55 306.98 21.55 307.58 25.74 290.43 25.74 289.53 26.64 289.53 41.31 307.58 41.31 307.58 45.5 284.71 45.5 284.71 1.79 307.58 1.79"/>
        <path class="cls-1" d="M330.48,35.35l4.79-1.23c1.14,12.59,20.33,9.25,17.92-2.56-1.79-8.73-21.35-6.46-20.35-20.52.83-11.59,18.46-13.49,23.38-3.56l-2.91,2.41c-.91.32-3.31-3.14-4.64-3.78-4.91-2.37-11.7.76-11.27,6.54.61,8.18,18.24,6.99,20.47,17.84,3.62,17.57-24.33,22.63-27.4,4.85Z"/>
        <path class="cls-1" d="M273.28,1.79v4.19h-10.53l-.9.9v37.72c0,.13.9.68.6.89h-4.82s0-38.62,0-38.62l-.9-.9h-9.93V1.79h26.48Z"/>
        <polygon class="cls-1" points="394.26 1.79 394.26 5.98 384.33 5.98 383.42 6.88 383.42 45.5 379.21 45.5 379.21 6.88 378.31 5.98 368.38 5.98 368.38 1.79 394.26 1.79"/>
        <rect class="cls-1" x="229.94" y="1.79" width="4.82" height="43.71"/>
        <path class="cls-1" d="M232.34,86.22l-2.91-.1-2.58-7.01h-11.9s-2.56,7.03-2.56,7.03l-2.92.08,11.74-26.34,11.13,26.34ZM216.7,76.64h8.43l-3.92-10.18c-1.25-.26-.83.5-1.17,1.2-.53,1.12-3.8,8.55-3.34,8.98Z"/>
        <path class="cls-1" d="M154.7,86.22l-2.92-.08-2.56-7.03-12.04.28-2.42,6.75-2.92.08,11.44-26.34,11.43,26.34ZM139.05,76.64h8.43c-.53-2.7-1.77-5.69-2.93-8.18-.35-.74-.46-2.35-1.58-2-.53.16-3.6,8.87-3.92,10.18Z"/>
        <path class="cls-1" d="M125.2,65.86c-13.74-11.76-26.43,11.82-11.42,17.65,4.74,1.85,7.28-.12,11.43-2.08.57,2.85-.6,3.54-3.12,4.38-14.76,4.89-24.73-14.44-11.89-23.2,4.28-2.92,15.54-4.02,15,3.25Z"/>
        <path class="cls-1" d="M161.92,61.07c5.1-.2,12.36-.84,13.13,5.85.73,6.29-5.28,8.92-10.72,7.93v11.38h-2.41v-25.15ZM164.33,63.47v8.98c10.64,1.81,11.07-10.99,0-8.98Z"/>
        <polygon class="cls-1" points="207.07 61.07 207.07 63.46 201.05 63.47 201.05 86.22 198.64 86.22 198.64 63.47 192.98 63.38 192.02 61.07 207.07 61.07"/>
        <polygon class="cls-1" points="241.98 61.07 241.98 83.83 249.2 83.83 249.2 86.22 239.57 86.22 239.57 61.07 241.98 61.07"/>
        <rect class="cls-1" x="182.99" y="61.07" width="2.41" height="25.15"/>
      </g>
    </g>
  </g>
</svg>